<?xml version="1.0" standalone="no"?>
<!DOCTYPE svg PUBLIC "-//W3C//DTD SVG 20010904//EN"
 "http://www.w3.org/TR/2001/REC-SVG-20010904/DTD/svg10.dtd">
<svg version="1.0" xmlns="http://www.w3.org/2000/svg"
 width="1181.000000pt" height="332.000000pt" viewBox="0 0 1181.000000 332.000000"
 preserveAspectRatio="xMidYMid meet">

<g transform="translate(0.000000,332.000000) scale(0.100000,-0.100000)"
fill="#94070A" stroke="none">
<path d="M1495 3313 c-166 -15 -379 -75 -544 -154 -181 -86 -300 -169 -445
-308 -460 -445 -623 -1111 -420 -1720 186 -559 653 -975 1239 -1101 142 -31
427 -39 583 -16 719 106 1292 679 1398 1398 23 156 15 441 -16 583 -153 712
-725 1232 -1445 1315 -85 9 -261 11 -350 3z m335 -58 c304 -24 654 -178 891
-392 172 -154 279 -293 377 -489 442 -881 -9 -1945 -953 -2247 -488 -156
-1027 -66 -1440 242 -330 246 -556 614 -625 1018 -23 131 -27 377 -9 496 113
750 722 1321 1469 1376 103 8 139 8 290 -4z"/>
<path d="M1573 3162 c23 -25 24 -170 2 -178 -30 -12 -14 -24 30 -24 25 0 45 5
45 10 0 6 -7 10 -15 10 -19 0 -27 34 -23 96 l3 49 64 -82 c35 -46 70 -83 76
-83 9 0 14 29 17 95 3 79 7 97 23 110 19 13 16 14 -29 15 l-50 0 22 -20 c17
-16 22 -32 22 -70 0 -28 -2 -50 -4 -50 -2 0 -29 32 -60 70 -54 66 -59 70 -98
70 -39 0 -40 -1 -25 -18z"/>
<path d="M1331 3148 l-34 -9 24 -12 c28 -14 65 -113 55 -151 -9 -35 -60 -52
-85 -27 -24 24 -59 153 -43 159 7 2 12 8 12 13 0 4 -6 6 -12 4 -7 -2 -33 -9
-57 -15 -41 -11 -42 -12 -23 -26 13 -9 25 -35 33 -70 17 -77 40 -104 89 -104
50 0 84 16 101 46 11 21 10 36 -4 96 -16 66 -16 72 -1 89 16 18 16 19 -2 18
-10 0 -34 -5 -53 -11z"/>
<path d="M1993 3132 c17 -19 17 -23 2 -83 -22 -90 -32 -110 -50 -103 -8 3 -15
2 -15 -3 0 -5 23 -15 51 -21 67 -16 74 -15 59 3 -20 24 16 174 44 185 18 6 14
9 -24 19 -25 7 -54 15 -65 18 -19 5 -19 5 -2 -15z"/>
<path d="M2260 3045 c9 -11 11 -42 5 -121 -5 -82 -4 -108 6 -114 8 -6 42 16
96 61 47 38 94 69 106 69 18 1 16 4 -13 20 -36 20 -80 29 -51 11 20 -13 9 -32
-47 -80 l-51 -42 5 58 c8 88 12 103 29 97 8 -4 15 -2 15 3 0 10 -83 53 -101
53 -8 0 -7 -5 1 -15z"/>
<path d="M770 2893 c0 -6 -11 -14 -24 -17 -39 -10 -86 -71 -86 -112 0 -63 54
-124 110 -124 38 0 91 32 117 71 24 36 24 38 8 63 -10 14 -15 33 -11 41 3 8 2
15 -2 15 -11 0 -96 -70 -86 -71 5 -1 17 -2 28 -3 51 -3 44 -68 -9 -74 -49 -6
-123 84 -111 135 9 33 43 44 83 27 43 -17 49 -3 13 31 -17 16 -30 24 -30 18z"/>
<path d="M1522 2880 c-459 -58 -837 -349 -1005 -775 -56 -142 -80 -274 -80
-445 0 -266 61 -471 207 -689 320 -480 938 -668 1482 -451 149 59 285 150 405
269 87 87 137 153 202 266 166 286 203 667 96 989 -142 426 -512 747 -954 826
-87 15 -269 20 -353 10z m398 -59 c469 -107 833 -487 915 -955 55 -318 -27
-665 -216 -916 -232 -307 -574 -480 -952 -480 -330 0 -614 116 -843 345 -409
408 -468 1025 -145 1515 44 68 187 218 261 275 154 118 367 207 565 235 94 14
318 3 415 -19z"/>
<path d="M1515 2780 c-376 -50 -706 -289 -869 -631 -112 -234 -142 -486 -87
-737 90 -411 406 -738 818 -849 89 -24 115 -27 283 -27 169 0 193 2 282 26
371 101 659 362 783 711 52 145 69 263 62 430 -6 172 -34 292 -101 432 -213
450 -682 709 -1171 645z m47 -207 l23 -25 0 -308 0 -308 -23 -25 c-13 -14 -44
-30 -68 -36 -171 -43 -368 -192 -516 -389 -105 -141 -116 -152 -155 -152 -46
0 -83 37 -83 83 0 76 230 346 404 474 59 44 230 133 254 133 9 0 12 29 12 100
0 55 -4 100 -8 100 -21 0 -128 -42 -203 -80 -88 -44 -137 -76 -237 -152 -37
-28 -74 -48 -88 -48 -36 0 -84 51 -84 88 0 37 16 56 108 125 132 101 287 181
440 227 l72 22 0 70 c0 81 10 105 52 122 39 17 71 10 100 -21z m328 1 c21 -20
25 -35 28 -98 l4 -75 72 -21 c188 -57 508 -251 537 -327 19 -51 -30 -113 -90
-113 -9 0 -53 27 -96 61 -44 34 -110 79 -148 101 -67 40 -240 117 -264 118
-10 0 -13 -26 -13 -97 l0 -98 77 -35 c129 -58 220 -124 348 -254 147 -148 239
-273 239 -324 0 -43 -40 -82 -85 -82 -36 0 -60 23 -141 136 -141 195 -342 352
-513 399 -36 10 -69 27 -82 41 -23 25 -23 28 -23 330 0 199 4 312 11 325 13
26 67 50 94 42 11 -3 31 -16 45 -29z m-195 -748 c40 -17 55 -42 55 -93 l0 -38
74 -22 c140 -43 292 -170 404 -337 64 -97 142 -254 142 -287 0 -43 -40 -83
-83 -83 -48 0 -63 15 -108 109 -103 217 -252 382 -389 430 l-40 14 0 -85 c0
-95 4 -101 99 -169 102 -72 221 -295 221 -414 0 -48 -32 -81 -80 -81 -49 0
-77 31 -97 106 -33 130 -126 263 -196 282 -49 14 -80 5 -126 -34 -54 -47 -97
-119 -132 -228 -17 -50 -40 -99 -51 -108 -48 -42 -138 -4 -138 58 0 38 57 200
91 261 40 70 121 158 175 189 51 30 56 43 52 147 l-3 78 -71 -35 c-125 -63
-237 -192 -337 -387 -58 -112 -90 -145 -131 -135 -33 8 -64 38 -72 70 -12 49
120 288 229 415 95 111 255 218 351 237 31 5 34 9 39 50 6 54 38 93 85 103 1
1 18 -5 37 -13z"/>
<path d="M2614 2834 c8 -27 -99 -148 -125 -141 -33 9 -21 -8 55 -76 l73 -66
22 23 c28 30 27 38 -5 25 -20 -7 -32 -6 -51 6 -37 24 -39 43 -8 75 23 24 31
27 43 18 9 -8 12 -22 8 -40 -7 -36 -2 -35 33 5 l30 32 -31 5 c-41 6 -43 18
-13 55 l25 30 25 -28 c18 -21 23 -35 19 -53 -8 -30 7 -31 24 -3 13 20 10 25
-30 66 -23 25 -56 54 -72 65 -27 20 -28 20 -22 2z"/>
<path d="M473 2615 c-29 -44 -29 -47 2 -39 18 4 35 -2 65 -24 l40 -29 -46 -7
c-26 -3 -67 -6 -92 -6 -45 0 -56 -8 -83 -54 -10 -17 -8 -18 16 -12 21 5 37 -1
78 -30 63 -45 77 -62 70 -80 -10 -26 12 -14 35 19 28 41 28 51 1 36 -18 -9
-29 -5 -77 28 -31 21 -49 39 -41 40 8 1 58 5 112 8 77 6 97 10 95 21 -2 8 -34
38 -73 67 -53 40 -69 58 -68 75 4 32 -9 27 -34 -13z"/>
<path d="M2875 2562 c4 -15 -7 -27 -47 -54 -85 -56 -97 -61 -114 -47 -21 17
-17 3 12 -47 24 -41 50 -62 38 -30 -4 12 55 60 64 52 1 -2 -7 -29 -18 -60
l-22 -56 24 -38 23 -37 3 30 c5 51 34 117 46 105 15 -15 62 -12 76 5 19 23 5
68 -40 135 -42 61 -56 74 -45 42z m48 -120 c-13 -22 -56 -27 -72 -8 -10 12 -6
19 26 39 37 24 38 24 47 5 6 -13 6 -26 -1 -36z"/>
<path d="M252 2237 c-12 -27 -22 -56 -22 -65 0 -15 1 -15 16 0 14 14 23 13 94
-16 58 -23 80 -36 83 -51 2 -16 6 -13 19 16 8 20 19 47 23 60 7 21 6 22 -8 10
-24 -20 -174 41 -180 72 -3 18 -8 12 -25 -26z"/>
<path d="M3000 2190 c-15 -15 -20 -33 -20 -69 0 -52 -16 -75 -47 -69 -27 5
-29 61 -3 98 23 33 19 36 -29 19 -23 -8 -29 -15 -22 -22 6 -6 11 -28 11 -50 0
-29 7 -46 29 -68 33 -33 56 -36 89 -13 18 12 22 25 22 68 0 60 19 88 48 69 25
-15 26 -39 3 -72 -28 -39 -27 -41 13 -29 32 10 34 13 29 47 -15 94 -75 139
-123 91z"/>
<path d="M171 1990 c-1 -8 -4 -33 -7 -55 -4 -31 -3 -37 5 -25 10 13 17 9 46
-24 41 -46 44 -61 13 -52 -13 3 -31 6 -40 6 -10 0 -18 7 -18 15 0 8 -4 15 -10
15 -5 0 -10 -8 -10 -17 0 -10 -3 -36 -7 -58 -6 -37 -5 -39 10 -26 28 22 187 1
187 -25 0 -8 5 -14 10 -14 6 0 10 11 10 24 0 13 3 39 6 57 6 28 4 32 -7 22
-15 -15 -57 -17 -77 -5 -9 6 4 17 40 37 29 15 54 28 54 29 1 1 5 21 9 46 l7
45 -23 -22 c-13 -11 -47 -35 -76 -51 l-51 -30 -26 36 c-14 20 -29 48 -35 62
-5 14 -10 18 -10 10z"/>
<path d="M3158 1863 c-5 -18 -15 -22 -74 -28 -38 -4 -77 -9 -87 -11 -10 -3
-20 1 -23 10 -12 32 -21 15 -17 -31 6 -68 13 -83 23 -57 6 16 20 23 56 28 82
11 122 8 133 -11 8 -14 10 -8 10 27 -1 25 -4 56 -8 70 -7 24 -7 24 -13 3z"/>
<path d="M310 1601 l-25 -7 25 -14 c32 -17 40 -29 40 -61 0 -29 -15 -39 -61
-39 -34 0 -39 22 -12 52 15 17 14 18 -25 18 -22 0 -44 -4 -47 -10 -3 -5 1 -10
9 -10 18 0 40 -36 31 -50 -3 -6 -24 -10 -46 -10 -37 0 -39 2 -39 30 0 18 8 37
19 47 25 21 19 32 -15 25 -25 -5 -26 -7 -20 -56 17 -138 18 -141 32 -122 9 13
36 21 94 28 74 9 83 8 96 -9 13 -16 14 -13 8 32 -21 178 -17 169 -64 156z"/>
<path d="M3143 1562 c45 -47 37 -56 -45 -48 -96 10 -118 15 -118 32 0 8 -4 14
-10 14 -5 0 -10 -10 -10 -22 0 -13 -3 -41 -6 -63 -5 -37 -4 -39 10 -21 14 17
21 18 102 8 48 -7 89 -13 91 -15 9 -10 -12 -40 -36 -49 l-26 -10 28 -10 c16
-6 31 -7 34 -4 4 4 12 50 18 104 13 104 10 112 -34 112 l-25 0 27 -28z"/>
<path d="M2882 1197 c-27 -70 -27 -70 -3 -55 30 18 75 -7 115 -66 20 -28 36
-57 36 -64 0 -22 17 -4 29 29 9 27 9 30 -8 24 -14 -4 -26 4 -45 27 -29 37 -26
43 28 51 33 5 39 3 44 -15 4 -16 10 -8 28 38 13 31 22 59 20 61 -2 3 -15 -2
-28 -10 -31 -20 -126 -31 -160 -18 -16 6 -28 19 -30 33 -3 18 -9 10 -26 -35z"/>
<path d="M242 1224 c-29 -20 -28 -43 4 -132 24 -66 28 -70 38 -51 15 29 154
83 173 67 22 -18 22 -6 -1 52 -12 33 -22 48 -24 37 -3 -14 -48 -47 -66 -47 -3
0 -12 15 -21 34 -14 29 -49 56 -73 56 -4 0 -18 -7 -30 -16z m86 -56 c23 -23
15 -30 -55 -52 -19 -6 -23 -4 -23 16 0 30 17 48 45 48 12 0 26 -5 33 -12z"/>
<path d="M2195 469 c-58 -16 -76 -85 -31 -115 21 -13 23 -19 14 -39 -9 -19 -7
-30 7 -51 15 -23 22 -26 57 -21 22 3 48 13 58 22 40 36 32 109 -14 121 -16 4
-23 11 -19 20 9 23 -5 61 -24 66 -10 3 -31 1 -48 -3z m33 -31 c7 -7 12 -20 12
-31 0 -26 -63 -20 -68 7 -6 30 33 47 56 24z m60 -130 c6 -49 -64 -60 -82 -13
-11 30 5 46 43 43 31 -3 36 -7 39 -30z"/>
<path d="M1040 461 c0 -6 11 -11 25 -11 32 0 31 -11 -8 -90 -26 -54 -36 -65
-54 -63 -38 4 -25 -11 30 -35 59 -25 81 -28 53 -7 -18 14 -18 17 23 106 23 50
40 93 38 96 -2 2 -27 6 -56 10 -35 4 -51 2 -51 -6z"/>
<path d="M1432 354 c-24 -16 -29 -53 -12 -84 8 -15 6 -20 -9 -25 -24 -7 -33
-42 -19 -69 16 -30 28 -36 75 -36 33 0 46 5 62 26 25 31 27 67 6 84 -14 12
-14 15 0 30 34 38 2 90 -55 90 -14 0 -36 -7 -48 -16z m78 -19 c13 -15 5 -55
-11 -55 -35 0 -63 43 -42 63 11 12 40 8 53 -8z m-10 -141 c0 -33 -31 -47 -58
-28 -26 18 -28 46 -6 68 14 14 17 14 40 0 14 -10 24 -26 24 -40z"/>
<path d="M1795 345 c-63 -63 11 -168 77 -108 17 15 18 15 18 -3 0 -31 -38 -84
-60 -84 -11 0 -20 -4 -20 -10 0 -16 30 -11 66 10 46 29 70 92 55 148 -20 71
-89 95 -136 47z m73 -7 c19 -19 15 -75 -5 -83 -20 -7 -53 26 -53 54 0 19 19
41 35 41 6 0 16 -5 23 -12z"/>
<path d="M6991 2737 c-12 -23 -11 -29 8 -60 11 -19 21 -46 21 -60 0 -14 6 -30
14 -34 26 -15 59 -97 64 -159 3 -45 0 -70 -13 -97 -23 -48 -14 -71 23 -62 43
10 110 53 134 85 18 25 29 30 65 30 50 0 95 20 117 52 16 22 21 92 10 122 -19
49 -288 195 -374 203 -51 5 -56 4 -69 -20z"/>
<path d="M11342 2718 c-7 -7 -12 -29 -12 -49 0 -68 -38 -167 -82 -215 -23 -25
-50 -44 -62 -44 -11 0 -41 -10 -66 -21 -36 -16 -56 -19 -98 -14 -61 8 -73 -5
-48 -54 19 -36 44 -51 85 -51 39 0 40 -18 5 -59 -42 -50 -13 -78 51 -49 34 15
41 5 20 -29 -37 -59 -67 -83 -104 -83 -20 0 -43 -5 -51 -10 -13 -8 -13 -14 4
-45 l19 -35 -51 -67 c-55 -71 -60 -84 -39 -101 10 -9 29 -1 78 32 35 24 70 53
77 65 16 27 45 27 89 0 27 -17 33 -26 28 -43 -11 -39 -18 -96 -10 -96 3 0 37
14 75 30 62 27 108 32 94 9 -3 -5 -69 -40 -147 -78 -78 -37 -176 -88 -218
-113 -41 -25 -87 -48 -101 -51 -14 -4 -72 -37 -129 -75 -57 -37 -132 -85 -167
-107 -70 -43 -76 -64 -23 -78 131 -33 574 174 725 340 35 39 122 91 132 80 4
-3 -3 -18 -15 -33 -11 -15 -21 -32 -21 -38 0 -7 -22 -33 -50 -59 -27 -26 -50
-51 -50 -56 0 -4 -27 -29 -61 -55 -51 -39 -60 -51 -57 -74 4 -37 33 -32 118
18 36 21 85 44 109 50 25 7 56 25 75 44 17 18 52 49 79 70 57 45 84 95 93 170
7 54 6 56 -22 67 -16 7 -55 14 -86 17 -32 2 -58 8 -58 13 0 5 19 23 42 39 43
31 154 157 207 233 45 66 91 176 91 219 0 32 -4 40 -26 48 -14 6 -38 10 -54
10 -16 0 -32 5 -36 11 -3 6 -20 9 -38 6 -58 -9 -189 -48 -227 -68 -47 -23 -99
-26 -99 -4 0 23 27 84 60 135 40 63 62 128 54 163 -7 32 -59 97 -78 97 -7 0
-17 -5 -24 -12z m104 -505 c90 -24 104 -31 104 -48 0 -29 -49 -102 -100 -150
-23 -22 -50 -57 -61 -77 -31 -61 -37 -56 -59 58 -15 77 -22 88 -49 79 -15 -4
-23 -18 -27 -45 -4 -22 -12 -48 -20 -57 -12 -17 -15 -16 -40 9 l-27 27 17 44
c17 45 129 187 147 187 6 0 58 -12 115 -27z"/>
<path d="M8903 2469 c-49 -18 -36 -116 38 -280 l43 -94 0 -135 c1 -162 -13
-335 -28 -355 -12 -17 -275 -130 -349 -150 -27 -8 -90 -39 -140 -69 -51 -31
-112 -60 -137 -65 -25 -5 -67 -15 -93 -22 l-48 -13 -37 39 -37 39 -3 -98 c-2
-86 0 -105 20 -145 l23 -46 71 -3 c63 -3 76 1 135 31 107 56 222 128 261 165
20 19 58 42 85 52 26 9 75 27 107 39 33 11 68 21 79 21 17 0 19 -5 13 -42 -11
-71 -63 -165 -134 -240 -71 -75 -118 -106 -198 -132 -58 -19 -119 -69 -129
-105 l-7 -24 74 6 c90 6 212 46 291 94 97 59 260 191 289 234 24 37 72 212 93
341 5 32 15 44 65 78 32 22 62 45 65 51 4 5 50 42 103 81 119 87 145 111 183
167 30 43 31 76 5 93 -19 13 -96 9 -126 -7 -15 -8 -52 -42 -82 -76 -54 -63
-181 -154 -199 -144 -5 4 -9 94 -9 214 0 173 3 211 15 221 20 17 20 108 -1
138 -8 12 -32 31 -53 41 -20 11 -57 36 -80 55 -31 26 -52 36 -78 36 -19 0 -42
4 -51 9 -9 5 -27 5 -39 0z"/>
<path d="M4318 2449 c-34 -20 -21 -65 41 -135 20 -23 48 -59 64 -80 15 -22 43
-58 62 -82 44 -55 54 -95 57 -223 3 -124 -12 -388 -22 -394 -4 -3 -18 4 -31
14 -13 10 -39 21 -57 24 -19 4 -45 16 -59 27 -14 11 -40 20 -57 20 -18 0 -49
9 -71 20 -42 22 -90 26 -100 10 -4 -6 3 -27 15 -48 13 -20 31 -77 41 -126 18
-88 18 -91 -1 -133 -10 -23 -31 -82 -45 -130 -35 -114 -58 -157 -113 -216
l-45 -49 5 -92 c7 -129 29 -165 103 -166 36 0 47 6 95 55 30 31 79 69 108 86
30 17 68 43 85 59 101 90 125 109 130 104 3 -4 3 -43 0 -88 -4 -53 -1 -96 6
-119 11 -33 16 -37 45 -37 41 0 59 19 90 96 83 204 119 658 93 1159 l-9 160
-57 56 c-34 33 -99 79 -161 114 -58 32 -122 74 -143 92 -41 36 -44 37 -69 22z
m209 -1173 c-4 -129 -7 -152 -22 -161 -10 -5 -34 -21 -54 -34 -20 -13 -58 -33
-86 -44 -27 -10 -63 -29 -80 -41 -66 -50 -129 -69 -162 -48 -17 11 -4 35 100
176 48 65 87 123 87 128 0 22 66 88 88 88 38 0 78 27 96 65 31 65 39 33 33
-129z"/>
<path d="M10447 2293 c-4 -3 -7 -22 -7 -40 0 -35 11 -50 167 -224 54 -60 63
-82 101 -244 17 -76 19 -80 45 -78 33 2 66 27 102 76 35 49 31 91 -19 193 -49
98 -114 167 -195 209 -36 18 -88 52 -115 74 -47 40 -66 48 -79 34z"/>
<path d="M5186 2178 c-16 -43 -73 -273 -103 -420 -15 -76 -15 -79 11 -195 15
-65 34 -154 42 -198 17 -93 57 -221 89 -285 42 -83 88 -110 186 -110 60 0 104
15 128 44 8 10 30 16 55 16 59 0 239 53 286 84 44 29 90 110 90 158 0 26 -3
28 -40 28 -22 0 -66 -10 -98 -21 -31 -12 -70 -23 -87 -26 -16 -2 -79 -20 -138
-40 -108 -35 -165 -39 -190 -14 -13 13 55 98 90 114 23 10 24 14 22 95 -2 59
1 86 10 91 7 5 45 11 84 14 172 13 271 94 279 226 l3 63 -65 24 c-70 27 -110
58 -110 85 0 27 -25 42 -49 29 -18 -9 -21 -20 -21 -80 l0 -68 -37 -23 c-21
-12 -54 -37 -73 -55 -33 -31 -37 -33 -56 -20 -15 11 -24 35 -34 88 -15 89 -45
190 -73 243 -19 38 -162 195 -178 195 -4 0 -15 -19 -23 -42z"/>
<path d="M7415 2194 c-33 -7 -90 -24 -128 -38 -37 -14 -76 -26 -85 -26 -33 0
-447 -171 -464 -192 -41 -47 -9 -101 86 -143 71 -31 115 -39 181 -30 69 8 115
39 197 132 92 104 210 193 255 193 36 0 95 58 91 89 -3 22 -8 26 -38 27 -19 1
-62 -4 -95 -12z"/>
<path d="M10435 1683 c6 -114 10 -133 34 -170 30 -49 56 -55 89 -20 25 27 52
88 52 119 0 58 -112 198 -158 198 l-24 0 7 -127z"/>
<path d="M7295 1723 c-54 -12 -83 -26 -113 -53 -19 -17 -44 -30 -59 -30 -16 0
-42 -15 -68 -39 -23 -21 -81 -61 -129 -90 l-88 -52 -44 41 c-30 28 -52 40 -67
38 -20 -3 -22 -9 -22 -63 -1 -33 -9 -100 -18 -149 -23 -119 -21 -161 8 -224
14 -30 25 -59 25 -66 0 -19 60 -66 76 -59 8 3 39 42 69 88 54 80 55 84 55 153
l0 71 41 11 c61 17 68 4 36 -72 -33 -76 -33 -92 -6 -112 31 -21 17 -51 -39
-83 -26 -15 -89 -56 -140 -90 -51 -35 -99 -63 -106 -63 -8 0 -27 -11 -43 -24
-15 -13 -38 -26 -51 -30 -12 -4 -31 -17 -42 -28 -17 -18 -23 -19 -48 -9 -22 9
-35 9 -55 0 -24 -11 -27 -18 -27 -59 0 -86 58 -165 130 -176 37 -6 31 -11 333
304 56 58 97 86 109 74 5 -5 13 -40 15 -76 6 -64 5 -65 -23 -78 -76 -32 -84
-68 -21 -93 56 -22 87 -52 87 -85 0 -43 36 -66 94 -62 18 2 18 9 12 110 -8
134 -27 225 -62 303 -24 52 -26 66 -18 107 9 46 10 47 89 87 102 52 168 97
194 134 18 25 19 33 10 55 -11 24 -17 26 -78 26 -47 0 -77 -6 -104 -20 -20
-11 -37 -17 -37 -13 1 5 35 40 76 78 42 39 101 95 132 126 31 30 73 65 94 77
42 26 52 46 38 72 -15 28 -156 56 -215 43z"/>
<path d="M11223 1285 c-13 -9 -67 -24 -120 -35 -111 -21 -264 -76 -434 -156
-65 -30 -124 -54 -134 -54 -9 0 -33 -11 -53 -25 -21 -14 -51 -25 -70 -25 -35
0 -82 -39 -82 -69 0 -9 17 -51 37 -93 51 -104 70 -111 170 -63 41 19 111 61
156 94 92 67 150 96 217 106 25 4 57 16 72 26 33 24 74 25 83 2 4 -10 8 -58
10 -107 3 -82 1 -91 -20 -112 -32 -32 -155 -68 -208 -60 -23 3 -48 2 -55 -2
-21 -14 6 -61 37 -68 14 -3 50 -16 79 -30 67 -31 103 -31 140 1 19 16 42 25
65 25 45 0 68 22 100 95 l26 61 -18 69 c-10 39 -25 84 -34 102 -39 75 -18 99
100 110 79 7 124 41 143 106 10 39 10 48 -4 70 -14 20 -28 26 -79 31 -34 4
-71 9 -82 12 -11 3 -30 -2 -42 -11z"/>
<path d="M9447 1263 c-22 -22 12 -184 57 -272 9 -16 16 -45 16 -64 0 -65 66
-84 152 -45 77 36 110 70 102 105 -12 50 -33 81 -85 125 -29 24 -76 65 -106
91 -66 58 -116 80 -136 60z"/>
<path d="M7386 1154 c-10 -25 -7 -150 4 -179 10 -26 56 -86 111 -146 46 -49
98 -48 158 2 20 17 25 31 29 92 l4 73 -57 68 c-36 42 -74 76 -99 87 -52 24
-141 26 -150 3z"/>
</g>
</svg>
